<svg xmlns="http://www.w3.org/2000/svg" xmlns:xlink="http://www.w3.org/1999/xlink" xmlns:lucid="lucid" width="1482" height="1284.26"><g transform="translate(1061 -178.00000000000006)" lucid:page-tab-id="0_0"><path d="M-1500 0H500v1500h-2000z" fill="#4c535d"/><path d="M-1040 378a18 18 0 0 1 18-18h124a18 18 0 0 1 18 18v4a18 18 0 0 1-18 18h-124a18 18 0 0 1-18-18z" stroke="#3a414a" stroke-width="2" fill="#cfe4ff"/><use xlink:href="#a" transform="matrix(1,0,0,1,-1034,365.9999999999999) translate(45.15314814814814 23.083333333333336)"/><path d="M-820 378a18 18 0 0 1 18-18h244a18 18 0 0 1 18 18v4a18 18 0 0 1-18 18h-244a18 18 0 0 1-18-18z" stroke="#3a414a" stroke-width="2" fill="#cfe4ff"/><use xlink:href="#b" transform="matrix(1,0,0,1,-814,366) translate(53.228395061728406 19.52777777777778)"/><use xlink:href="#c" transform="matrix(1,0,0,1,-814,366) translate(133.35185185185185 19.52777777777778)"/><path d="M-820 298a18 18 0 0 1 18-18h244a18 18 0 0 1 18 18v4a18 18 0 0 1-18 18h-244a18 18 0 0 1-18-18z" stroke="#3a414a" stroke-width="2" fill="#cfe4ff"/><use xlink:href="#b" transform="matrix(1,0,0,1,-814,286) translate(48.96913580246914 19.52777777777778)"/><use xlink:href="#d" transform="matrix(1,0,0,1,-814,286) translate(129.09259259259258 19.52777777777778)"/><path d="M-820 458a18 18 0 0 1 18-18h244a18 18 0 0 1 18 18v4a18 18 0 0 1-18 18h-244a18 18 0 0 1-18-18z" stroke="#3a414a" stroke-width="2" fill="#cfe4ff"/><use xlink:href="#b" transform="matrix(1,0,0,1,-814,446) translate(50.82098765432099 19.52777777777778)"/><use xlink:href="#e" transform="matrix(1,0,0,1,-814,446) translate(130.94444444444443 19.52777777777778)"/><path d="M-878.5 380h22.5a6 6 0 0 0 6-6v-68a6 6 0 0 1 6-6h6.62" stroke="#fff" fill="none"/><path d="M-878.5 380.48h-.5v-.96h.5z" stroke="#fff" stroke-width=".05" fill="#fff"/><path d="M-822.62 300l-14.26 4.63v-9.26z" stroke="#fff" fill="#fff"/><path d="M-878.5 380h41.12" stroke="#fff" fill="none"/><path d="M-878.5 380.48h-.5v-.96h.5z" stroke="#fff" stroke-width=".05" fill="#fff"/><path d="M-822.62 380l-14.26 4.63v-9.26z" stroke="#fff" fill="#fff"/><path d="M-878.5 380h22.5a6 6 0 0 1 6 6v68a6 6 0 0 0 6 6h6.62" stroke="#fff" fill="none"/><path d="M-878.5 380.48h-.5v-.96h.5z" stroke="#fff" stroke-width=".05" fill="#fff"/><path d="M-822.62 460l-14.26 4.63v-9.26z" stroke="#fff" fill="#fff"/><path d="M-1040 218a18 18 0 0 1 18-18h124a18 18 0 0 1 18 18v4a18 18 0 0 1-18 18h-124a18 18 0 0 1-18-18z" stroke="#3a414a" stroke-width="2" fill="#cfe4ff"/><use xlink:href="#f" transform="matrix(1,0,0,1,-1034,206.00000000000017) translate(39.301296296296286 23.083333333333336)"/><path d="M-440 380c0 11.05-8.95 20-20 20s-20-8.95-20-20 8.95-20 20-20 20 8.95 20 20z" stroke="#3a414a" stroke-width="2" fill="#c3f7c8"/><use xlink:href="#g" transform="matrix(1,0,0,1,-475,365) translate(8.83216049382716 19.71527777777778)"/><path d="M-538.5 380h41.12" stroke="#fff" fill="none"/><path d="M-538.5 380.48h-.5v-.96h.5z" stroke="#fff" stroke-width=".05" fill="#fff"/><path d="M-482.62 380l-14.26 4.63v-9.26z" stroke="#fff" fill="#fff"/><path d="M-440 220c0 11.05-8.95 20-20 20s-20-8.95-20-20 8.95-20 20-20 20 8.95 20 20z" stroke="#3a414a" stroke-width="2" fill="#c3f7c8"/><use xlink:href="#h" transform="matrix(1,0,0,1,-475,205.00000000000006) translate(8.83216049382716 19.65277777777778)"/><path d="M-878.5 220h381.1" stroke="#fff" fill="none"/><path d="M-878.5 220.47h-.5v-.94h.5z" stroke="#fff" stroke-width=".05" fill="#fff"/><path d="M-482.62 220l-14.27 4.63v-9.26z" stroke="#fff" fill="#fff"/><path d="M240 618.26a18 18 0 0 1 18-18h124a18 18 0 0 1 18 18v4a18 18 0 0 1-18 18H258a18 18 0 0 1-18-18z" stroke="#3a414a" stroke-width="2" fill="#cfe4ff"/><use xlink:href="#a" transform="matrix(1,0,0,1,246,606.2574463896793) translate(45.15314814814814 23.083333333333336)"/><path d="M240 218a18 18 0 0 1 18-18h124a18 18 0 0 1 18 18v4a18 18 0 0 1-18 18H258a18 18 0 0 1-18-18z" stroke="#3a414a" stroke-width="2" fill="#cfe4ff"/><use xlink:href="#f" transform="matrix(1,0,0,1,246,206) translate(39.301296296296286 23.083333333333336)"/><path d="M240 858.26a18 18 0 0 1 18-18h124a18 18 0 0 1 18 18v4a18 18 0 0 1-18 18H258a18 18 0 0 1-18-18z" stroke="#3a414a" stroke-width="2" fill="#cfe4ff"/><use xlink:href="#i" transform="matrix(1,0,0,1,246,846.2574463896793) translate(39.22722222222222 23.083333333333336)"/><path d="M240 1098.26a18 18 0 0 1 18-18h124a18 18 0 0 1 18 18v4a18 18 0 0 1-18 18H258a18 18 0 0 1-18-18z" stroke="#3a414a" stroke-width="2" fill="#cfe4ff"/><use xlink:href="#j" transform="matrix(1,0,0,1,246,1086.2574463896794) translate(30.338333333333324 23.083333333333336)"/><path d="M240 1338.26a18 18 0 0 1 18-18h124a18 18 0 0 1 18 18v4a18 18 0 0 1-18 18H258a18 18 0 0 1-18-18z" stroke="#3a414a" stroke-width="2" fill="#cfe4ff"/><use xlink:href="#k" transform="matrix(1,0,0,1,246,1326.2574463896794) translate(22.967962962962943 23.083333333333336)"/><path d="M240 378.26a18 18 0 0 1 18-18h124a18 18 0 0 1 18 18v4a18 18 0 0 1-18 18H258a18 18 0 0 1-18-18z" stroke="#3a414a" stroke-width="2" fill="#cfe4ff"/><use xlink:href="#l" transform="matrix(1,0,0,1,246,366.25744638967944) translate(30.4124074074074 23.083333333333336)"/><path d="M-200 220c0 11.05-8.95 20-20 20s-20-8.95-20-20 8.95-20 20-20 20 8.95 20 20z" stroke="#3a414a" stroke-width="2" fill="#c3f7c8"/><use xlink:href="#h" transform="matrix(1,0,0,1,-235,205.00000000000003) translate(8.83216049382716 19.71527777777778)"/><path d="M-160 220c0 11.05-8.95 20-20 20s-20-8.95-20-20 8.95-20 20-20 20 8.95 20 20z" stroke="#3a414a" stroke-width="2" fill="#c3f7c8"/><use xlink:href="#m" transform="matrix(1,0,0,1,-195,205.00000000000006) translate(8.83216049382716 19.65277777777778)"/><path d="M-200 460c0 11.05-8.95 20-20 20s-20-8.95-20-20 8.95-20 20-20 20 8.95 20 20z" stroke="#3a414a" stroke-width="2" fill="#c3f7c8"/><use xlink:href="#n" transform="matrix(1,0,0,1,-235,445) translate(8.83216049382716 19.71527777777778)"/><path d="M-160 460c0 11.05-8.95 20-20 20s-20-8.95-20-20 8.95-20 20-20 20 8.95 20 20z" stroke="#3a414a" stroke-width="2" fill="#c3f7c8"/><use xlink:href="#g" transform="matrix(1,0,0,1,-195,445) translate(8.83216049382716 19.65277777777778)"/><path d="M-200 379.74c0 11.05-8.95 20-20 20s-20-8.95-20-20c0-11.04 8.95-20 20-20s20 8.96 20 20z" stroke="#3a414a" stroke-width="2" fill="#c3f7c8"/><use xlink:href="#h" transform="matrix(1,0,0,1,-235,364.74255361032067) translate(8.83216049382716 19.71527777777778)"/><path d="M-100 377.74a18 18 0 0 1 18-18h244a18 18 0 0 1 18 18v4a18 18 0 0 1-18 18H-82a18 18 0 0 1-18-18z" stroke="#3a414a" stroke-width="2" fill="#cfe4ff"/><use xlink:href="#o" transform="matrix(1,0,0,1,-93.99999999999997,365.74255361032067) translate(69.4320987654321 19.52777777777778)"/><use xlink:href="#p" transform="matrix(1,0,0,1,-93.99999999999997,365.74255361032067) translate(117.14814814814815 19.52777777777778)"/><path d="M-100 297.5a18 18 0 0 1 18-18h244a18 18 0 0 1 18 18v4a18 18 0 0 1-18 18H-82a18 18 0 0 1-18-18z" stroke="#3a414a" stroke-width="2" fill="#cfe4ff"/><use xlink:href="#o" transform="matrix(1,0,0,1,-93.99999999999974,285.4851072206414) translate(65.17283950617283 19.52777777777778)"/><use xlink:href="#q" transform="matrix(1,0,0,1,-93.99999999999974,285.4851072206414) translate(112.88888888888889 19.52777777777778)"/><path d="M-100 458a18 18 0 0 1 18-18h244a18 18 0 0 1 18 18v4a18 18 0 0 1-18 18H-82a18 18 0 0 1-18-18z" stroke="#3a414a" stroke-width="2" fill="#cfe4ff"/><use xlink:href="#r" transform="matrix(1,0,0,1,-94,446) translate(67.02469135802468 19.52777777777778)"/><use xlink:href="#e" transform="matrix(1,0,0,1,-94,446) translate(114.74074074074073 19.52777777777778)"/><path d="M181.5 299.5H204a6 6 0 0 1 6 6v68.76a6 6 0 0 0 6 6h6.62" stroke="#fff" fill="none"/><path d="M181.5 299.96h-.5V299h.5z" stroke="#fff" stroke-width=".05" fill="#fff"/><path d="M237.38 380.26l-14.26 4.63v-9.28z" stroke="#fff" fill="#fff"/><path d="M181.5 379.74h41.63" stroke="#fff" fill="none"/><path d="M181.5 380.22h-.5v-.95h.5z" stroke="#fff" stroke-width=".05" fill="#fff"/><path d="M237.38 380.2l-14.4 4.18.3-9.27z" stroke="#fff" fill="#fff"/><path d="M181.5 460H204a6 6 0 0 0 6-6v-67.74a6 6 0 0 1 6-6h6.62" stroke="#fff" fill="none"/><path d="M181.5 460.48h-.5v-.96h.5z" stroke="#fff" stroke-width=".05" fill="#fff"/><path d="M237.38 380.26l-14.26 4.63v-9.28z" stroke="#fff" fill="#fff"/><path d="M-158.5 220h381.12" stroke="#fff" fill="none"/><path d="M-158.5 220.47h-.55l.05-.43-.02-.5h.53z" stroke="#fff" stroke-width=".05" fill="#fff"/><path d="M237.38 220l-14.26 4.63v-9.26z" stroke="#fff" fill="#fff"/><path d="M-158.5 460h28.37a.13.13 0 0 0 .13-.13.13.13 0 0 1 .13-.13h12.5" stroke="#fff" fill="none"/><path d="M-158.5 460.48h-.55l.05-.44-.02-.52h.53z" stroke="#fff" stroke-width=".05" fill="#fff"/><path d="M-102.62 459.74l-14.26 4.64v-9.27z" stroke="#fff" fill="#fff"/><path d="M-198.5 379.74h81.12" stroke="#fff" fill="none"/><path d="M-198.5 380.22h-.55l.05-.43-.02-.53h.53z" stroke="#fff" stroke-width=".05" fill="#fff"/><path d="M-102.62 379.74l-14.26 4.64v-9.27z" stroke="#fff" fill="#fff"/><path d="M-100 618.26a18 18 0 0 1 18-18h244a18 18 0 0 1 18 18v4a18 18 0 0 1-18 18H-82a18 18 0 0 1-18-18z" stroke="#3a414a" stroke-width="2" fill="#cfe4ff"/><use xlink:href="#s" transform="matrix(1,0,0,1,-93.99999999999997,606.2574463896793) translate(53.228395061728406 19.52777777777778)"/><use xlink:href="#p" transform="matrix(1,0,0,1,-93.99999999999997,606.2574463896793) translate(133.35185185185185 19.52777777777778)"/><path d="M-100 538.26a18 18 0 0 1 18-18h244a18 18 0 0 1 18 18v4a18 18 0 0 1-18 18H-82a18 18 0 0 1-18-18z" stroke="#3a414a" stroke-width="2" fill="#cfe4ff"/><use xlink:href="#s" transform="matrix(1,0,0,1,-93.99999999999997,526.2574463896793) translate(48.96913580246914 19.52777777777778)"/><use xlink:href="#q" transform="matrix(1,0,0,1,-93.99999999999997,526.2574463896793) translate(129.09259259259258 19.52777777777778)"/><path d="M-100 698.26a18 18 0 0 1 18-18h244a18 18 0 0 1 18 18v4a18 18 0 0 1-18 18H-82a18 18 0 0 1-18-18z" stroke="#3a414a" stroke-width="2" fill="#cfe4ff"/><use xlink:href="#s" transform="matrix(1,0,0,1,-94,686.2574463896793) translate(50.82098765432099 19.52777777777778)"/><use xlink:href="#t" transform="matrix(1,0,0,1,-94,686.2574463896793) translate(130.94444444444443 19.52777777777778)"/><path d="M181.5 620.26h41.12" stroke="#fff" fill="none"/><path d="M181.5 620.73h-.5v-.95h.5z" stroke="#fff" stroke-width=".05" fill="#fff"/><path d="M237.38 620.26l-14.26 4.63v-9.28z" stroke="#fff" fill="#fff"/><path d="M-200 620.26c0 11.04-8.95 20-20 20s-20-8.96-20-20c0-11.05 8.95-20 20-20s20 8.95 20 20z" stroke="#3a414a" stroke-width="2" fill="#c3f7c8"/><use xlink:href="#h" transform="matrix(1,0,0,1,-235,605.2574463896793) translate(8.83216049382716 19.71527777777778)"/><path d="M-160 620.26c0 11.04-8.95 20-20 20s-20-8.96-20-20c0-11.05 8.95-20 20-20s20 8.95 20 20z" stroke="#3a414a" stroke-width="2" fill="#c3f7c8"/><use xlink:href="#m" transform="matrix(1,0,0,1,-195,605.2574463896793) translate(8.83216049382716 19.65277777777778)"/><path d="M-200 700.26c0 11.04-8.95 20-20 20s-20-8.96-20-20c0-11.05 8.95-20 20-20s20 8.95 20 20z" stroke="#3a414a" stroke-width="2" fill="#c3f7c8"/><use xlink:href="#n" transform="matrix(1,0,0,1,-235,685.2574463896793) translate(8.83216049382716 19.71527777777778)"/><path d="M-160 700.26c0 11.04-8.95 20-20 20s-20-8.96-20-20c0-11.05 8.95-20 20-20s20 8.95 20 20z" stroke="#3a414a" stroke-width="2" fill="#c3f7c8"/><use xlink:href="#m" transform="matrix(1,0,0,1,-195,685.2574463896793) translate(8.83216049382716 19.65277777777778)"/><path d="M-199.5 540.13h82.12M-199.5 540.13h-.5" stroke="#fff" fill="none"/><path d="M-102.62 540.13l-14.26 4.63v-9.27z" stroke="#fff" fill="#fff"/><path d="M-170.7 530.84l-18.6 18.58M-170.7 549.42l-18.6-18.58" stroke="#fff" stroke-width="2" stroke-linecap="round" fill="none"/><path d="M-158.5 620.26h41.12" stroke="#fff" fill="none"/><path d="M-158.5 620.73h-.55l.05-.43-.02-.52h.53z" stroke="#fff" stroke-width=".05" fill="#fff"/><path d="M-102.62 620.26l-14.26 4.63v-9.28z" stroke="#fff" fill="#fff"/><path d="M-158.5 700.26h41.12" stroke="#fff" fill="none"/><path d="M-158.5 700.73h-.55l.05-.43-.02-.52h.53z" stroke="#fff" stroke-width=".05" fill="#fff"/><path d="M-102.62 700.26l-14.26 4.63v-9.28z" stroke="#fff" fill="#fff"/><path d="M181.5 700.26H204a6 6 0 0 0 6-6v-68a6 6 0 0 1 6-6h6.62" stroke="#fff" fill="none"/><path d="M181.5 700.73h-.5v-.95h.5z" stroke="#fff" stroke-width=".05" fill="#fff"/><path d="M237.38 620.26l-14.26 4.63v-9.28z" stroke="#fff" fill="#fff"/><path d="M181.5 540.26H204a6 6 0 0 1 6 6v68a6 6 0 0 0 6 6h6.62" stroke="#fff" fill="none"/><path d="M181.5 540.73h-.5v-.95h.5z" stroke="#fff" stroke-width=".05" fill="#fff"/><path d="M237.38 620.26l-14.26 4.63v-9.28z" stroke="#fff" fill="#fff"/><path d="M-100 858.26a18 18 0 0 1 18-18h244a18 18 0 0 1 18 18v4a18 18 0 0 1-18 18H-82a18 18 0 0 1-18-18z" stroke="#3a414a" stroke-width="2" fill="#cfe4ff"/><use xlink:href="#b" transform="matrix(1,0,0,1,-93.99999999999997,846.2574463896793) translate(53.228395061728406 19.52777777777778)"/><use xlink:href="#c" transform="matrix(1,0,0,1,-93.99999999999997,846.2574463896793) translate(133.35185185185185 19.52777777777778)"/><path d="M-100 778.26a18 18 0 0 1 18-18h244a18 18 0 0 1 18 18v4a18 18 0 0 1-18 18H-82a18 18 0 0 1-18-18z" stroke="#3a414a" stroke-width="2" fill="#cfe4ff"/><use xlink:href="#b" transform="matrix(1,0,0,1,-93.99999999999997,766.2574463896793) translate(48.96913580246914 19.52777777777778)"/><use xlink:href="#d" transform="matrix(1,0,0,1,-93.99999999999997,766.2574463896793) translate(129.09259259259258 19.52777777777778)"/><path d="M-100 938.26a18 18 0 0 1 18-18h244a18 18 0 0 1 18 18v4a18 18 0 0 1-18 18H-82a18 18 0 0 1-18-18z" stroke="#3a414a" stroke-width="2" fill="#cfe4ff"/><use xlink:href="#b" transform="matrix(1,0,0,1,-94,926.2574463896793) translate(50.82098765432099 19.52777777777778)"/><use xlink:href="#e" transform="matrix(1,0,0,1,-94,926.2574463896793) translate(130.94444444444443 19.52777777777778)"/><path d="M181.5 780.26H204a6 6 0 0 1 6 6v68a6 6 0 0 0 6 6h6.62" stroke="#fff" fill="none"/><path d="M181.5 780.73h-.5v-.95h.5z" stroke="#fff" stroke-width=".05" fill="#fff"/><path d="M237.38 860.26l-14.26 4.63v-9.28z" stroke="#fff" fill="#fff"/><path d="M181.5 860.26h41.12" stroke="#fff" fill="none"/><path d="M181.5 860.73h-.5v-.95h.5z" stroke="#fff" stroke-width=".05" fill="#fff"/><path d="M237.38 860.26l-14.26 4.63v-9.28z" stroke="#fff" fill="#fff"/><path d="M181.5 940.26H204a6 6 0 0 0 6-6v-68a6 6 0 0 1 6-6h6.62" stroke="#fff" fill="none"/><path d="M181.5 940.73h-.5v-.95h.5z" stroke="#fff" stroke-width=".05" fill="#fff"/><path d="M237.38 860.26l-14.26 4.63v-9.28z" stroke="#fff" fill="#fff"/><path d="M-100 1098.26a18 18 0 0 1 18-18h244a18 18 0 0 1 18 18v4a18 18 0 0 1-18 18H-82a18 18 0 0 1-18-18z" stroke="#3a414a" stroke-width="2" fill="#cfe4ff"/><use xlink:href="#r" transform="matrix(1,0,0,1,-93.99999999999997,1086.2574463896794) translate(69.4320987654321 19.52777777777778)"/><use xlink:href="#c" transform="matrix(1,0,0,1,-93.99999999999997,1086.2574463896794) translate(117.14814814814815 19.52777777777778)"/><path d="M-100 1018.26a18 18 0 0 1 18-18h244a18 18 0 0 1 18 18v4a18 18 0 0 1-18 18H-82a18 18 0 0 1-18-18z" stroke="#3a414a" stroke-width="2" fill="#cfe4ff"/><use xlink:href="#r" transform="matrix(1,0,0,1,-93.99999999999997,1006.2574463896794) translate(65.17283950617283 19.52777777777778)"/><use xlink:href="#d" transform="matrix(1,0,0,1,-93.99999999999997,1006.2574463896794) translate(112.88888888888889 19.52777777777778)"/><path d="M-100 1178.26a18 18 0 0 1 18-18h244a18 18 0 0 1 18 18v4a18 18 0 0 1-18 18H-82a18 18 0 0 1-18-18z" stroke="#3a414a" stroke-width="2" fill="#cfe4ff"/><use xlink:href="#r" transform="matrix(1,0,0,1,-94,1166.2574463896794) translate(67.02469135802468 19.52777777777778)"/><use xlink:href="#e" transform="matrix(1,0,0,1,-94,1166.2574463896794) translate(114.74074074074073 19.52777777777778)"/><path d="M181.5 1020.26H204a6 6 0 0 1 6 6v68a6 6 0 0 0 6 6h6.62" stroke="#fff" fill="none"/><path d="M181.5 1020.73h-.5v-.95h.5z" stroke="#fff" stroke-width=".05" fill="#fff"/><path d="M237.38 1100.26l-14.26 4.63v-9.28z" stroke="#fff" fill="#fff"/><path d="M181.5 1100.26h41.12" stroke="#fff" fill="none"/><path d="M181.5 1100.73h-.5v-.95h.5z" stroke="#fff" stroke-width=".05" fill="#fff"/><path d="M237.38 1100.26l-14.26 4.63v-9.28z" stroke="#fff" fill="#fff"/><path d="M181.5 1180.26H204a6 6 0 0 0 6-6v-68a6 6 0 0 1 6-6h6.62" stroke="#fff" fill="none"/><path d="M181.5 1180.73h-.5v-.95h.5z" stroke="#fff" stroke-width=".05" fill="#fff"/><path d="M237.38 1100.26l-14.26 4.63v-9.28z" stroke="#fff" fill="#fff"/><path d="M-199.5 780.26h82.12M-199.5 780.26h-.5" stroke="#fff" fill="none"/><path d="M-102.62 780.26l-14.26 4.63v-9.28z" stroke="#fff" fill="#fff"/><path d="M-170.7 770.96l-18.6 18.6M-170.7 789.55l-18.6-18.6" stroke="#fff" stroke-width="2" stroke-linecap="round" fill="none"/><path d="M-199.5 1020.26h82.12M-199.5 1020.26h-.5" stroke="#fff" fill="none"/><path d="M-102.62 1020.26l-14.26 4.63v-9.28z" stroke="#fff" fill="#fff"/><path d="M-170.7 1010.96l-18.6 18.6M-170.7 1029.55l-18.6-18.6" stroke="#fff" stroke-width="2" stroke-linecap="round" fill="none"/><path d="M-200 860.26c0 11.04-8.95 20-20 20s-20-8.96-20-20c0-11.05 8.95-20 20-20s20 8.95 20 20z" stroke="#3a414a" stroke-width="2" fill="#c3f7c8"/><use xlink:href="#h" transform="matrix(1,0,0,1,-235,845.2574463896794) translate(8.83216049382716 19.71527777777778)"/><path d="M-198.5 860.26h81.1" stroke="#fff" fill="none"/><path d="M-198.5 860.73h-.55l.05-.43-.02-.52h.53z" stroke="#fff" stroke-width=".05" fill="#fff"/><path d="M-102.62 860.26l-14.27 4.63.02-9.28z" stroke="#fff" fill="#fff"/><path d="M-200 940.26c0 11.04-8.95 20-20 20s-20-8.96-20-20c0-11.05 8.95-20 20-20s20 8.95 20 20z" stroke="#3a414a" stroke-width="2" fill="#c3f7c8"/><use xlink:href="#h" transform="matrix(1,0,0,1,-235,925.2574463896793) translate(8.83216049382716 19.71527777777778)"/><path d="M-198.5 940.26h81.12" stroke="#fff" fill="none"/><path d="M-198.5 940.73h-.55l.05-.43-.02-.52h.53z" stroke="#fff" stroke-width=".05" fill="#fff"/><path d="M-102.62 940.26l-14.26 4.63v-9.28z" stroke="#fff" fill="#fff"/><path d="M-200 1100.26c0 11.04-8.95 20-20 20s-20-8.96-20-20c0-11.05 8.95-20 20-20s20 8.95 20 20z" stroke="#3a414a" stroke-width="2" fill="#c3f7c8"/><use xlink:href="#h" transform="matrix(1,0,0,1,-235,1085.2574463896794) translate(8.83216049382716 19.71527777777778)"/><path d="M-198.5 1100.26h81.12" stroke="#fff" fill="none"/><path d="M-198.5 1100.73h-.55l.05-.43-.02-.52h.53z" stroke="#fff" stroke-width=".05" fill="#fff"/><path d="M-102.62 1100.26l-14.26 4.63v-9.28z" stroke="#fff" fill="#fff"/><path d="M-200 1180.26c0 11.04-8.95 20-20 20s-20-8.96-20-20c0-11.05 8.95-20 20-20s20 8.95 20 20z" stroke="#3a414a" stroke-width="2" fill="#c3f7c8"/><use xlink:href="#h" transform="matrix(1,0,0,1,-235,1165.2574463896794) translate(8.83216049382716 19.71527777777778)"/><path d="M-198.5 1180.26h81.12" stroke="#fff" fill="none"/><path d="M-198.5 1180.73h-.55l.05-.43-.02-.52h.53z" stroke="#fff" stroke-width=".05" fill="#fff"/><path d="M-102.62 1180.26l-14.26 4.63v-9.28z" stroke="#fff" fill="#fff"/><path d="M-538.5 300h22.5a6 6 0 0 1 6 6v68a6 6 0 0 0 6 6h6.62" stroke="#fff" fill="none"/><path d="M-538.5 300.48h-.5v-.96h.5z" stroke="#fff" stroke-width=".05" fill="#fff"/><path d="M-482.62 380l-14.26 4.63v-9.26z" stroke="#fff" fill="#fff"/><path d="M-538.5 460h22.5a6 6 0 0 0 6-6v-68a6 6 0 0 1 6-6h6.62" stroke="#fff" fill="none"/><path d="M-538.5 460.48h-.5v-.96h.5z" stroke="#fff" stroke-width=".05" fill="#fff"/><path d="M-482.62 380l-14.26 4.63v-9.26z" stroke="#fff" fill="#fff"/><path d="M-100 1338.26a18 18 0 0 1 18-18h244a18 18 0 0 1 18 18v4a18 18 0 0 1-18 18H-82a18 18 0 0 1-18-18z" stroke="#3a414a" stroke-width="2" fill="#cfe4ff"/><use xlink:href="#r" transform="matrix(1,0,0,1,-93.99999999999997,1326.2574463896794) translate(69.4320987654321 19.52777777777778)"/><use xlink:href="#c" transform="matrix(1,0,0,1,-93.99999999999997,1326.2574463896794) translate(117.14814814814815 19.52777777777778)"/><path d="M-100 1258.26a18 18 0 0 1 18-18h244a18 18 0 0 1 18 18v4a18 18 0 0 1-18 18H-82a18 18 0 0 1-18-18z" stroke="#3a414a" stroke-width="2" fill="#cfe4ff"/><use xlink:href="#r" transform="matrix(1,0,0,1,-93.99999999999997,1246.2574463896794) translate(65.17283950617283 19.52777777777778)"/><use xlink:href="#d" transform="matrix(1,0,0,1,-93.99999999999997,1246.2574463896794) translate(112.88888888888889 19.52777777777778)"/><path d="M-100 1418.26a18 18 0 0 1 18-18h244a18 18 0 0 1 18 18v4a18 18 0 0 1-18 18H-82a18 18 0 0 1-18-18z" stroke="#3a414a" stroke-width="2" fill="#cfe4ff"/><use xlink:href="#r" transform="matrix(1,0,0,1,-94,1406.2574463896794) translate(67.02469135802468 19.52777777777778)"/><use xlink:href="#e" transform="matrix(1,0,0,1,-94,1406.2574463896794) translate(114.74074074074073 19.52777777777778)"/><path d="M181.5 1260.26H204a6 6 0 0 1 6 6v68a6 6 0 0 0 6 6h6.62" stroke="#fff" fill="none"/><path d="M181.5 1260.73h-.5v-.95h.5z" stroke="#fff" stroke-width=".05" fill="#fff"/><path d="M237.38 1340.26l-14.26 4.63v-9.28z" stroke="#fff" fill="#fff"/><path d="M181.5 1340.26h41.12" stroke="#fff" fill="none"/><path d="M181.5 1340.73h-.5v-.95h.5z" stroke="#fff" stroke-width=".05" fill="#fff"/><path d="M237.38 1340.26l-14.26 4.63v-9.28z" stroke="#fff" fill="#fff"/><path d="M181.5 1420.26H204a6 6 0 0 0 6-6v-68a6 6 0 0 1 6-6h6.62" stroke="#fff" fill="none"/><path d="M181.5 1420.73h-.5v-.95h.5z" stroke="#fff" stroke-width=".05" fill="#fff"/><path d="M237.38 1340.26l-14.26 4.63v-9.28z" stroke="#fff" fill="#fff"/><path d="M-199.5 299.5h82.12M-199.5 299.5h-.5" stroke="#fff" fill="none"/><path d="M-102.62 299.5l-14.26 4.62v-9.27z" stroke="#fff" fill="#fff"/><g><path d="M-170.7 290.2l-18.6 18.58" stroke="#fff" stroke-width="2" stroke-linecap="round" fill="none"/></g><g><path d="M-170.7 308.78l-18.6-18.6" stroke="#fff" stroke-width="2" stroke-linecap="round" fill="none"/></g><path d="M-199.5 1260.26h82.12M-199.5 1260.26h-.5" stroke="#fff" fill="none"/><path d="M-102.62 1260.26l-14.26 4.63v-9.28z" stroke="#fff" fill="#fff"/><g><path d="M-170.7 1250.96l-18.6 18.6" stroke="#fff" stroke-width="2" stroke-linecap="round" fill="none"/></g><g><path d="M-170.7 1269.55l-18.6-18.6" stroke="#fff" stroke-width="2" stroke-linecap="round" fill="none"/></g><path d="M-200 1340.26c0 11.04-8.95 20-20 20s-20-8.96-20-20c0-11.05 8.95-20 20-20s20 8.95 20 20z" stroke="#3a414a" stroke-width="2" fill="#c3f7c8"/><g><use xlink:href="#h" transform="matrix(1,0,0,1,-235,1325.2574463896794) translate(8.83216049382716 19.71527777777778)"/></g><path d="M-198.5 1340.26h81.12" stroke="#fff" fill="none"/><path d="M-198.5 1340.73h-.55l.05-.43-.02-.52h.53z" stroke="#fff" stroke-width=".05" fill="#fff"/><path d="M-102.62 1340.26l-14.26 4.63v-9.28z" stroke="#fff" fill="#fff"/><path d="M-200 1420.26c0 11.04-8.95 20-20 20s-20-8.96-20-20c0-11.05 8.95-20 20-20s20 8.95 20 20z" stroke="#3a414a" stroke-width="2" fill="#c3f7c8"/><g><use xlink:href="#h" transform="matrix(1,0,0,1,-235,1405.2574463896794) translate(8.83216049382716 19.71527777777778)"/></g><path d="M-198.5 1420.26h81.12" stroke="#fff" fill="none"/><path d="M-198.5 1420.73h-.55l.05-.43-.02-.52h.53z" stroke="#fff" stroke-width=".05" fill="#fff"/><path d="M-102.62 1420.26l-14.26 4.63v-9.28z" stroke="#fff" fill="#fff"/><defs><path d="M185-189c-5-48-123-54-124 2 14 75 158 14 163 119 3 78-121 87-175 55-17-10-28-26-33-46l33-7c5 56 141 63 141-1 0-78-155-14-162-118-5-82 145-84 179-34 5 7 8 16 11 25" id="u"/><path d="M240 0l2-218c-23 76-54 145-80 218h-23L58-218 59 0H30v-248h44l77 211c21-75 51-140 76-211h43V0h-30" id="v"/><path d="M160-131c35 5 61 23 61 61C221 17 115-2 30 0v-248c76 3 177-17 177 60 0 33-19 50-47 57zm-97-11c50-1 110 9 110-42 0-47-63-36-110-37v79zm0 115c55-2 124 14 124-45 0-56-70-42-124-44v89" id="w"/><g id="a"><use transform="matrix(0.07407407407407408,0,0,0.07407407407407408,0,0)" xlink:href="#u"/><use transform="matrix(0.07407407407407408,0,0,0.07407407407407408,17.77777777777778,0)" xlink:href="#v"/><use transform="matrix(0.07407407407407408,0,0,0.07407407407407408,39.92592592592593,0)" xlink:href="#w"/></g><path d="M24-231v-30h32v30H24zM24 0v-190h32V0H24" id="x"/><path d="M177-190C167-65 218 103 67 71c-23-6-38-20-44-43l32-5c15 47 100 32 89-28v-30C133-14 115 1 83 1 29 1 15-40 15-95c0-56 16-97 71-98 29-1 48 16 59 35 1-10 0-23 2-32h30zM94-22c36 0 50-32 50-73 0-42-14-75-50-75-39 0-46 34-46 75s6 73 46 73" id="y"/><path d="M117-194c89-4 53 116 60 194h-32v-121c0-31-8-49-39-48C34-167 62-67 57 0H25l-1-190h30c1 10-1 24 2 32 11-22 29-35 61-36" id="z"/><g id="b"><use transform="matrix(0.06172839506172839,0,0,0.06172839506172839,0,0)" xlink:href="#u"/><use transform="matrix(0.06172839506172839,0,0,0.06172839506172839,14.814814814814813,0)" xlink:href="#x"/><use transform="matrix(0.06172839506172839,0,0,0.06172839506172839,19.691358024691354,0)" xlink:href="#y"/><use transform="matrix(0.06172839506172839,0,0,0.06172839506172839,32.03703703703703,0)" xlink:href="#z"/><use transform="matrix(0.06172839506172839,0,0,0.06172839506172839,44.38271604938271,0)" xlink:href="#x"/><use transform="matrix(0.06172839506172839,0,0,0.06172839506172839,49.25925925925925,0)" xlink:href="#z"/><use transform="matrix(0.06172839506172839,0,0,0.06172839506172839,61.60493827160493,0)" xlink:href="#y"/></g><path d="M30 0v-248h187v28H63v79h144v27H63v87h162V0H30" id="A"/><path d="M141-36C126-15 110 5 73 4 37 3 15-17 15-53c-1-64 63-63 125-63 3-35-9-54-41-54-24 1-41 7-42 31l-33-3c5-37 33-52 76-52 45 0 72 20 72 64v82c-1 20 7 32 28 27v20c-31 9-61-2-59-35zM48-53c0 20 12 33 32 33 41-3 63-29 60-74-43 2-92-5-92 41" id="B"/><path d="M115-194c53 0 69 39 70 98 0 66-23 100-70 100C84 3 66-7 56-30L54 0H23l1-261h32v101c10-23 28-34 59-34zm-8 174c40 0 45-34 45-75 0-40-5-75-45-74-42 0-51 32-51 76 0 43 10 73 51 73" id="C"/><path d="M24 0v-261h32V0H24" id="D"/><path d="M100-194c63 0 86 42 84 106H49c0 40 14 67 53 68 26 1 43-12 49-29l28 8c-11 28-37 45-77 45C44 4 14-33 15-96c1-61 26-98 85-98zm52 81c6-60-76-77-97-28-3 7-6 17-6 28h103" id="E"/><path d="M85-194c31 0 48 13 60 33l-1-100h32l1 261h-30c-2-10 0-23-3-31C134-8 116 4 85 4 32 4 16-35 15-94c0-66 23-100 70-100zm9 24c-40 0-46 34-46 75 0 40 6 74 45 74 42 0 51-32 51-76 0-42-9-74-50-73" id="F"/><g id="c"><use transform="matrix(0.06172839506172839,0,0,0.06172839506172839,0,0)" xlink:href="#A"/><use transform="matrix(0.06172839506172839,0,0,0.06172839506172839,14.814814814814813,0)" xlink:href="#z"/><use transform="matrix(0.06172839506172839,0,0,0.06172839506172839,27.160493827160494,0)" xlink:href="#B"/><use transform="matrix(0.06172839506172839,0,0,0.06172839506172839,39.50617283950617,0)" xlink:href="#C"/><use transform="matrix(0.06172839506172839,0,0,0.06172839506172839,51.85185185185185,0)" xlink:href="#D"/><use transform="matrix(0.06172839506172839,0,0,0.06172839506172839,56.72839506172839,0)" xlink:href="#E"/><use transform="matrix(0.06172839506172839,0,0,0.06172839506172839,69.07407407407408,0)" xlink:href="#F"/></g><path d="M233-177c-1 41-23 64-60 70L243 0h-38l-65-103H63V0H30v-248c88 3 205-21 203 71zM63-129c60-2 137 13 137-47 0-61-80-42-137-45v92" id="G"/><path d="M145-31C134-9 116 4 85 4 32 4 16-35 15-94c0-59 17-99 70-100 32-1 48 14 60 33 0-11-1-24 2-32h30l-1 268h-32zM93-21c41 0 51-33 51-76s-8-73-50-73c-40 0-46 35-46 75s5 74 45 74" id="H"/><path d="M84 4C-5 8 30-112 23-190h32v120c0 31 7 50 39 49 72-2 45-101 50-169h31l1 190h-30c-1-10 1-25-2-33-11 22-28 36-60 37" id="I"/><path d="M114-163C36-179 61-72 57 0H25l-1-190h30c1 12-1 29 2 39 6-27 23-49 58-41v29" id="J"/><g id="d"><use transform="matrix(0.06172839506172839,0,0,0.06172839506172839,0,0)" xlink:href="#G"/><use transform="matrix(0.06172839506172839,0,0,0.06172839506172839,15.987654320987653,0)" xlink:href="#E"/><use transform="matrix(0.06172839506172839,0,0,0.06172839506172839,28.333333333333332,0)" xlink:href="#H"/><use transform="matrix(0.06172839506172839,0,0,0.06172839506172839,40.67901234567901,0)" xlink:href="#I"/><use transform="matrix(0.06172839506172839,0,0,0.06172839506172839,53.02469135802469,0)" xlink:href="#x"/><use transform="matrix(0.06172839506172839,0,0,0.06172839506172839,57.901234567901234,0)" xlink:href="#J"/><use transform="matrix(0.06172839506172839,0,0,0.06172839506172839,65.24691358024691,0)" xlink:href="#E"/><use transform="matrix(0.06172839506172839,0,0,0.06172839506172839,77.5925925925926,0)" xlink:href="#F"/></g><path d="M30-248c118-7 216 8 213 122C240-48 200 0 122 0H30v-248zM63-27c89 8 146-16 146-99s-60-101-146-95v194" id="K"/><path d="M135-143c-3-34-86-38-87 0 15 53 115 12 119 90S17 21 10-45l28-5c4 36 97 45 98 0-10-56-113-15-118-90-4-57 82-63 122-42 12 7 21 19 24 35" id="L"/><g id="e"><use transform="matrix(0.06172839506172839,0,0,0.06172839506172839,0,0)" xlink:href="#K"/><use transform="matrix(0.06172839506172839,0,0,0.06172839506172839,15.987654320987653,0)" xlink:href="#x"/><use transform="matrix(0.06172839506172839,0,0,0.06172839506172839,20.864197530864196,0)" xlink:href="#L"/><use transform="matrix(0.06172839506172839,0,0,0.06172839506172839,31.975308641975307,0)" xlink:href="#B"/><use transform="matrix(0.06172839506172839,0,0,0.06172839506172839,44.32098765432099,0)" xlink:href="#C"/><use transform="matrix(0.06172839506172839,0,0,0.06172839506172839,56.666666666666664,0)" xlink:href="#D"/><use transform="matrix(0.06172839506172839,0,0,0.06172839506172839,61.54320987654321,0)" xlink:href="#E"/><use transform="matrix(0.06172839506172839,0,0,0.06172839506172839,73.88888888888889,0)" xlink:href="#F"/></g><path d="M197 0v-115H63V0H30v-248h33v105h134v-105h34V0h-34" id="M"/><path d="M127-220V0H93v-220H8v-28h204v28h-85" id="N"/><path d="M30-248c87 1 191-15 191 75 0 78-77 80-158 76V0H30v-248zm33 125c57 0 124 11 124-50 0-59-68-47-124-48v98" id="O"/><g id="f"><use transform="matrix(0.07407407407407408,0,0,0.07407407407407408,0,0)" xlink:href="#M"/><use transform="matrix(0.07407407407407408,0,0,0.07407407407407408,19.185185185185187,0)" xlink:href="#N"/><use transform="matrix(0.07407407407407408,0,0,0.07407407407407408,35.40740740740741,0)" xlink:href="#N"/><use transform="matrix(0.07407407407407408,0,0,0.07407407407407408,51.62962962962963,0)" xlink:href="#O"/></g><path d="M182-182c0 78-84 86-111 141h115V0H12c-6-101 99-100 120-180 1-22-12-31-33-32-23 0-32 14-35 34l-49-3c5-45 32-70 84-70 51 0 83 22 83 69" id="P"/><use transform="matrix(0.06172839506172839,0,0,0.06172839506172839,0,0)" xlink:href="#P" id="g"/><path d="M23 0v-37h61v-169l-59 37v-38l62-41h46v211h57V0H23" id="Q"/><use transform="matrix(0.06172839506172839,0,0,0.06172839506172839,0,0)" xlink:href="#Q" id="h"/><path d="M30 0v-248h33v221h125V0H30" id="R"/><path d="M205 0l-28-72H64L36 0H1l101-248h38L239 0h-34zm-38-99l-47-123c-12 45-31 82-46 123h93" id="S"/><g id="i"><use transform="matrix(0.07407407407407408,0,0,0.07407407407407408,0,0)" xlink:href="#R"/><use transform="matrix(0.07407407407407408,0,0,0.07407407407407408,14.814814814814817,0)" xlink:href="#K"/><use transform="matrix(0.07407407407407408,0,0,0.07407407407407408,34,0)" xlink:href="#S"/><use transform="matrix(0.07407407407407408,0,0,0.07407407407407408,51.77777777777778,0)" xlink:href="#O"/></g><g id="j"><use transform="matrix(0.07407407407407408,0,0,0.07407407407407408,0,0)" xlink:href="#R"/><use transform="matrix(0.07407407407407408,0,0,0.07407407407407408,14.814814814814817,0)" xlink:href="#K"/><use transform="matrix(0.07407407407407408,0,0,0.07407407407407408,34,0)" xlink:href="#S"/><use transform="matrix(0.07407407407407408,0,0,0.07407407407407408,51.77777777777778,0)" xlink:href="#O"/><use transform="matrix(0.07407407407407408,0,0,0.07407407407407408,69.55555555555556,0)" xlink:href="#u"/></g><path d="M16-82v-28h88v28H16" id="T"/><path d="M140-251c81 0 123 46 123 126C263-53 228-8 163 1c7 30 30 48 69 40v23c-55 16-95-15-103-61C56-3 17-48 17-125c0-80 42-126 123-126zm0 227c63 0 89-41 89-101s-29-99-89-99c-61 0-89 39-89 99S79-25 140-24" id="U"/><g id="k"><use transform="matrix(0.07407407407407408,0,0,0.07407407407407408,0,0)" xlink:href="#v"/><use transform="matrix(0.07407407407407408,0,0,0.07407407407407408,22.148148148148152,0)" xlink:href="#u"/><use transform="matrix(0.07407407407407408,0,0,0.07407407407407408,39.92592592592593,0)" xlink:href="#T"/><use transform="matrix(0.07407407407407408,0,0,0.07407407407407408,48.74074074074075,0)" xlink:href="#u"/><use transform="matrix(0.07407407407407408,0,0,0.07407407407407408,66.51851851851853,0)" xlink:href="#U"/><use transform="matrix(0.07407407407407408,0,0,0.07407407407407408,87.25925925925928,0)" xlink:href="#R"/></g><g id="l"><use transform="matrix(0.07407407407407408,0,0,0.07407407407407408,0,0)" xlink:href="#M"/><use transform="matrix(0.07407407407407408,0,0,0.07407407407407408,19.185185185185187,0)" xlink:href="#N"/><use transform="matrix(0.07407407407407408,0,0,0.07407407407407408,35.40740740740741,0)" xlink:href="#N"/><use transform="matrix(0.07407407407407408,0,0,0.07407407407407408,51.62962962962963,0)" xlink:href="#O"/><use transform="matrix(0.07407407407407408,0,0,0.07407407407407408,69.40740740740742,0)" xlink:href="#u"/></g><use transform="matrix(0.06172839506172839,0,0,0.06172839506172839,0,0)" xlink:href="#P" id="m"/><use transform="matrix(0.06172839506172839,0,0,0.06172839506172839,0,0)" xlink:href="#Q" id="n"/><g id="o"><use transform="matrix(0.06172839506172839,0,0,0.06172839506172839,0,0)" xlink:href="#A"/><use transform="matrix(0.06172839506172839,0,0,0.06172839506172839,14.814814814814813,0)" xlink:href="#O"/><use transform="matrix(0.06172839506172839,0,0,0.06172839506172839,27.962962962962962,0)" xlink:href="#S"/></g><g id="p"><use transform="matrix(0.06172839506172839,0,0,0.06172839506172839,0,0)" xlink:href="#A"/><use transform="matrix(0.06172839506172839,0,0,0.06172839506172839,14.814814814814813,0)" xlink:href="#z"/><use transform="matrix(0.06172839506172839,0,0,0.06172839506172839,27.160493827160494,0)" xlink:href="#B"/><use transform="matrix(0.06172839506172839,0,0,0.06172839506172839,39.50617283950617,0)" xlink:href="#C"/><use transform="matrix(0.06172839506172839,0,0,0.06172839506172839,51.85185185185185,0)" xlink:href="#D"/><use transform="matrix(0.06172839506172839,0,0,0.06172839506172839,56.72839506172839,0)" xlink:href="#E"/><use transform="matrix(0.06172839506172839,0,0,0.06172839506172839,69.07407407407408,0)" xlink:href="#F"/></g><g id="q"><use transform="matrix(0.06172839506172839,0,0,0.06172839506172839,0,0)" xlink:href="#G"/><use transform="matrix(0.06172839506172839,0,0,0.06172839506172839,15.987654320987653,0)" xlink:href="#E"/><use transform="matrix(0.06172839506172839,0,0,0.06172839506172839,28.333333333333332,0)" xlink:href="#H"/><use transform="matrix(0.06172839506172839,0,0,0.06172839506172839,40.67901234567901,0)" xlink:href="#I"/><use transform="matrix(0.06172839506172839,0,0,0.06172839506172839,53.02469135802469,0)" xlink:href="#x"/><use transform="matrix(0.06172839506172839,0,0,0.06172839506172839,57.901234567901234,0)" xlink:href="#J"/><use transform="matrix(0.06172839506172839,0,0,0.06172839506172839,65.24691358024691,0)" xlink:href="#E"/><use transform="matrix(0.06172839506172839,0,0,0.06172839506172839,77.5925925925926,0)" xlink:href="#F"/></g><g id="r"><use transform="matrix(0.06172839506172839,0,0,0.06172839506172839,0,0)" xlink:href="#A"/><use transform="matrix(0.06172839506172839,0,0,0.06172839506172839,14.814814814814813,0)" xlink:href="#O"/><use transform="matrix(0.06172839506172839,0,0,0.06172839506172839,27.962962962962962,0)" xlink:href="#S"/></g><g id="s"><use transform="matrix(0.06172839506172839,0,0,0.06172839506172839,0,0)" xlink:href="#u"/><use transform="matrix(0.06172839506172839,0,0,0.06172839506172839,14.814814814814813,0)" xlink:href="#x"/><use transform="matrix(0.06172839506172839,0,0,0.06172839506172839,19.691358024691354,0)" xlink:href="#y"/><use transform="matrix(0.06172839506172839,0,0,0.06172839506172839,32.03703703703703,0)" xlink:href="#z"/><use transform="matrix(0.06172839506172839,0,0,0.06172839506172839,44.38271604938271,0)" xlink:href="#x"/><use transform="matrix(0.06172839506172839,0,0,0.06172839506172839,49.25925925925925,0)" xlink:href="#z"/><use transform="matrix(0.06172839506172839,0,0,0.06172839506172839,61.60493827160493,0)" xlink:href="#y"/></g><g id="t"><use transform="matrix(0.06172839506172839,0,0,0.06172839506172839,0,0)" xlink:href="#K"/><use transform="matrix(0.06172839506172839,0,0,0.06172839506172839,15.987654320987653,0)" xlink:href="#x"/><use transform="matrix(0.06172839506172839,0,0,0.06172839506172839,20.864197530864196,0)" xlink:href="#L"/><use transform="matrix(0.06172839506172839,0,0,0.06172839506172839,31.975308641975307,0)" xlink:href="#B"/><use transform="matrix(0.06172839506172839,0,0,0.06172839506172839,44.32098765432099,0)" xlink:href="#C"/><use transform="matrix(0.06172839506172839,0,0,0.06172839506172839,56.666666666666664,0)" xlink:href="#D"/><use transform="matrix(0.06172839506172839,0,0,0.06172839506172839,61.54320987654321,0)" xlink:href="#E"/><use transform="matrix(0.06172839506172839,0,0,0.06172839506172839,73.88888888888889,0)" xlink:href="#F"/></g></defs></g></svg>